<svg xmlns="http://www.w3.org/2000/svg" fill-rule="evenodd" clip-rule="evenodd" image-rendering="optimizeQuality" shape-rendering="geometricPrecision" text-rendering="geometricPrecision" viewBox="0 0 506 511.95"><path d="M285.166 91.467a10.4 10.4 0 0 0-7.377 3.053L46.03 326.3a10.3 10.3 0 0 0-2.66 4.55L11.1 445.67C4.97 467.59 1.38 483.06.35 492.06c-.41 3.56-.458 6.49-.128 8.77.95 6.76 4.509 10.44 10.629 11.06 1.47.15 2.89.01 4.3-.39 3.31-.9 10.33-2.98 20.89-6.17 30.489-9.32 60.74-18.71 91.16-28.28l24.03-7.32 23.54-7.07a10.37 10.37 0 0 0 4.94-2.77l231.66-231.7c4.05-4.05 4.07-10.63.02-14.7L292.55 94.52a10.43 10.43 0 0 0-7.384-3.053z" style="stroke:#000;fill:#fff"/><path d="M387.91 0c-5.14 0-9.99.98-14.56 2.92-4.51 1.91-8.58 4.7-12.23 8.36l-44.08 44.07c-4.07 4.08-4.07 10.69 0 14.76l118.85 119.33c4.05 4.07 10.64 4.09 14.71.04l44.64-44.6c3.61-3.61 6.29-7.75 8.08-12.28l.23-.63c1.65-4.41 2.45-9.1 2.45-13.97 0-5.08-.88-9.99-2.69-14.56l-.43-.96c-1.78-4.15-4.33-7.94-7.68-11.27l-80.45-79.93c-3.69-3.68-7.8-6.48-12.3-8.37C397.85.97 393.01 0 387.91 0Z" style="stroke:#000;fill:#fff;fill-opacity:1"/></svg>